solid OpenSCAD_Model
  facet normal 1 -0 0
    outer loop
      vertex 6.26 -2.35 7
      vertex 6.26 3.4 0
      vertex 6.26 3.4 7
    endloop
  endfacet
  facet normal 1 0 0
    outer loop
      vertex 6.26 3.4 0
      vertex 6.26 -2.35 7
      vertex 6.26 -2.35 0
    endloop
  endfacet
  facet normal 0 0 1
    outer loop
      vertex 6.26 3.4 7
      vertex 5.36 2.5 7
      vertex 6.26 -2.35 7
    endloop
  endfacet
  facet normal 0 0 1
    outer loop
      vertex 6.26 3.4 7
      vertex -5.36 2.5 7
      vertex 5.36 2.5 7
    endloop
  endfacet
  facet normal 0 0 1
    outer loop
      vertex -5.36 2.5 7
      vertex -6.26 3.4 7
      vertex -5.36 -1.45 7
    endloop
  endfacet
  facet normal -0 0 1
    outer loop
      vertex -6.26 3.4 7
      vertex -5.36 2.5 7
      vertex 6.26 3.4 7
    endloop
  endfacet
  facet normal -0 0 1
    outer loop
      vertex 5.36 -1.45 7
      vertex 6.26 -2.35 7
      vertex 5.36 2.5 7
    endloop
  endfacet
  facet normal -0 0 1
    outer loop
      vertex -5.36 -1.45 7
      vertex 6.26 -2.35 7
      vertex 5.36 -1.45 7
    endloop
  endfacet
  facet normal 0 0 1
    outer loop
      vertex -5.36 -1.45 7
      vertex -6.26 -2.35 7
      vertex 6.26 -2.35 7
    endloop
  endfacet
  facet normal 0 0 1
    outer loop
      vertex -6.26 -2.35 7
      vertex -5.36 -1.45 7
      vertex -6.26 3.4 7
    endloop
  endfacet
  facet normal 0 0 -1
    outer loop
      vertex 4.13 0.319999 0
      vertex 6.26 -2.35 0
      vertex 4.13 -0.32 0
    endloop
  endfacet
  facet normal 0 0 -1
    outer loop
      vertex 6.26 -2.35 0
      vertex 3.49 -0.32 0
      vertex 4.13 -0.32 0
    endloop
  endfacet
  facet normal 0 0 -1
    outer loop
      vertex 3.49 -0.32 0
      vertex 1.59 -0.32 0
      vertex 3.49 0.319999 0
    endloop
  endfacet
  facet normal 0 0 -1
    outer loop
      vertex 6.26 -2.35 0
      vertex 1.59 -0.32 0
      vertex 3.49 -0.32 0
    endloop
  endfacet
  facet normal 0 0 -1
    outer loop
      vertex 6.26 -2.35 0
      vertex 0.95 -0.32 0
      vertex 1.59 -0.32 0
    endloop
  endfacet
  facet normal 0 0 -1
    outer loop
      vertex 0.95 -0.32 0
      vertex -0.949999 -0.32 0
      vertex 0.95 0.319999 0
    endloop
  endfacet
  facet normal 0 0 -1
    outer loop
      vertex 6.26 -2.35 0
      vertex -0.949999 -0.32 0
      vertex 0.95 -0.32 0
    endloop
  endfacet
  facet normal 0 0 -1
    outer loop
      vertex -6.26 -2.35 0
      vertex -0.949999 -0.32 0
      vertex 6.26 -2.35 0
    endloop
  endfacet
  facet normal 0 0 -1
    outer loop
      vertex -1.59 -0.32 0
      vertex -3.49 -0.32 0
      vertex -1.59 0.319999 0
    endloop
  endfacet
  facet normal -0 0 -1
    outer loop
      vertex -0.949999 -0.32 0
      vertex -6.26 -2.35 0
      vertex -1.59 -0.32 0
    endloop
  endfacet
  facet normal -0 0 -1
    outer loop
      vertex -1.59 -0.32 0
      vertex -6.26 -2.35 0
      vertex -3.49 -0.32 0
    endloop
  endfacet
  facet normal -0 0 -1
    outer loop
      vertex -4.13 -0.32 0
      vertex -6.26 -2.35 0
      vertex -4.13 0.319999 0
    endloop
  endfacet
  facet normal -0 0 -1
    outer loop
      vertex -3.49 -0.32 0
      vertex -6.26 -2.35 0
      vertex -4.13 -0.32 0
    endloop
  endfacet
  facet normal 0 0 -1
    outer loop
      vertex 6.26 -2.35 0
      vertex 4.13 0.319999 0
      vertex 6.26 3.4 0
    endloop
  endfacet
  facet normal 0 0 -1
    outer loop
      vertex 3.49 0.319999 0
      vertex 6.26 3.4 0
      vertex 4.13 0.319999 0
    endloop
  endfacet
  facet normal 0 0 -1
    outer loop
      vertex 1.59 0.319999 0
      vertex 3.49 0.319999 0
      vertex 1.59 -0.32 0
    endloop
  endfacet
  facet normal 0 0 -1
    outer loop
      vertex 3.49 0.319999 0
      vertex 1.59 0.319999 0
      vertex 6.26 3.4 0
    endloop
  endfacet
  facet normal 0 0 -1
    outer loop
      vertex 0.95 0.319999 0
      vertex 6.26 3.4 0
      vertex 1.59 0.319999 0
    endloop
  endfacet
  facet normal 0 0 -1
    outer loop
      vertex -0.949999 0.319999 0
      vertex 0.95 0.319999 0
      vertex -0.949999 -0.32 0
    endloop
  endfacet
  facet normal 0 0 -1
    outer loop
      vertex 0.95 0.319999 0
      vertex -0.949999 0.319999 0
      vertex 6.26 3.4 0
    endloop
  endfacet
  facet normal 0 0 -1
    outer loop
      vertex -6.26 3.4 0
      vertex -0.949999 0.319999 0
      vertex -1.59 0.319999 0
    endloop
  endfacet
  facet normal 0 0 -1
    outer loop
      vertex -3.49 0.319999 0
      vertex -1.59 0.319999 0
      vertex -3.49 -0.32 0
    endloop
  endfacet
  facet normal 0 0 -1
    outer loop
      vertex -6.26 3.4 0
      vertex -1.59 0.319999 0
      vertex -3.49 0.319999 0
    endloop
  endfacet
  facet normal 0 0 -1
    outer loop
      vertex -6.26 3.4 0
      vertex -3.49 0.319999 0
      vertex -4.13 0.319999 0
    endloop
  endfacet
  facet normal 0 0 -1
    outer loop
      vertex -0.949999 0.319999 0
      vertex -6.26 3.4 0
      vertex 6.26 3.4 0
    endloop
  endfacet
  facet normal 0 0 -1
    outer loop
      vertex -6.26 3.4 0
      vertex -4.13 0.319999 0
      vertex -6.26 -2.35 0
    endloop
  endfacet
  facet normal -1 0 0
    outer loop
      vertex -6.26 -2.35 0
      vertex -6.26 3.4 7
      vertex -6.26 3.4 0
    endloop
  endfacet
  facet normal -1 -0 0
    outer loop
      vertex -6.26 3.4 7
      vertex -6.26 -2.35 0
      vertex -6.26 -2.35 7
    endloop
  endfacet
  facet normal 0 1 -0
    outer loop
      vertex 6.26 3.4 0
      vertex -6.26 3.4 7
      vertex 6.26 3.4 7
    endloop
  endfacet
  facet normal 0 1 0
    outer loop
      vertex -6.26 3.4 7
      vertex 6.26 3.4 0
      vertex -6.26 3.4 0
    endloop
  endfacet
  facet normal 0 -1 0
    outer loop
      vertex -6.26 -2.35 0
      vertex 6.26 -2.35 7
      vertex -6.26 -2.35 7
    endloop
  endfacet
  facet normal 0 -1 -0
    outer loop
      vertex 6.26 -2.35 7
      vertex -6.26 -2.35 0
      vertex 6.26 -2.35 0
    endloop
  endfacet
  facet normal -1 0 0
    outer loop
      vertex 5.36 -1.45 0.9
      vertex 5.36 2.5 7
      vertex 5.36 2.5 0.9
    endloop
  endfacet
  facet normal -1 -0 0
    outer loop
      vertex 5.36 2.5 7
      vertex 5.36 -1.45 0.9
      vertex 5.36 -1.45 7
    endloop
  endfacet
  facet normal 0 0 1
    outer loop
      vertex 5.36 2.5 0.9
      vertex 4.13 0.319999 0.9
      vertex 5.36 -1.45 0.9
    endloop
  endfacet
  facet normal 0 0 1
    outer loop
      vertex 5.36 2.5 0.9
      vertex 3.49 0.319999 0.9
      vertex 4.13 0.319999 0.9
    endloop
  endfacet
  facet normal 0 0 1
    outer loop
      vertex 3.49 0.319999 0.9
      vertex 1.59 0.319999 0.9
      vertex 3.49 -0.32 0.9
    endloop
  endfacet
  facet normal 0 0 1
    outer loop
      vertex 5.36 2.5 0.9
      vertex 1.59 0.319999 0.9
      vertex 3.49 0.319999 0.9
    endloop
  endfacet
  facet normal 0 0 1
    outer loop
      vertex 5.36 2.5 0.9
      vertex 0.95 0.319999 0.9
      vertex 1.59 0.319999 0.9
    endloop
  endfacet
  facet normal 0 0 1
    outer loop
      vertex 0.95 0.319999 0.9
      vertex -0.949999 0.319999 0.9
      vertex 0.95 -0.32 0.9
    endloop
  endfacet
  facet normal 0 0 1
    outer loop
      vertex 5.36 2.5 0.9
      vertex -0.949999 0.319999 0.9
      vertex 0.95 0.319999 0.9
    endloop
  endfacet
  facet normal -0 0 1
    outer loop
      vertex -5.36 2.5 0.9
      vertex -0.949999 0.319999 0.9
      vertex 5.36 2.5 0.9
    endloop
  endfacet
  facet normal 0 0 1
    outer loop
      vertex -1.59 0.319999 0.9
      vertex -3.49 0.319999 0.9
      vertex -1.59 -0.32 0.9
    endloop
  endfacet
  facet normal 0 0 1
    outer loop
      vertex -0.949999 0.319999 0.9
      vertex -5.36 2.5 0.9
      vertex -1.59 0.319999 0.9
    endloop
  endfacet
  facet normal 0 0 1
    outer loop
      vertex -1.59 0.319999 0.9
      vertex -5.36 2.5 0.9
      vertex -3.49 0.319999 0.9
    endloop
  endfacet
  facet normal 0 0 1
    outer loop
      vertex -5.36 -1.45 0.9
      vertex -4.13 0.319999 0.9
      vertex -5.36 2.5 0.9
    endloop
  endfacet
  facet normal 0 0 1
    outer loop
      vertex -3.49 0.319999 0.9
      vertex -5.36 2.5 0.9
      vertex -4.13 0.319999 0.9
    endloop
  endfacet
  facet normal -0 0 1
    outer loop
      vertex 4.13 -0.32 0.9
      vertex 5.36 -1.45 0.9
      vertex 4.13 0.319999 0.9
    endloop
  endfacet
  facet normal -0 0 1
    outer loop
      vertex 3.49 -0.32 0.9
      vertex 5.36 -1.45 0.9
      vertex 4.13 -0.32 0.9
    endloop
  endfacet
  facet normal 0 0 1
    outer loop
      vertex 1.59 -0.32 0.9
      vertex 3.49 -0.32 0.9
      vertex 1.59 0.319999 0.9
    endloop
  endfacet
  facet normal 0 0 1
    outer loop
      vertex 3.49 -0.32 0.9
      vertex 1.59 -0.32 0.9
      vertex 5.36 -1.45 0.9
    endloop
  endfacet
  facet normal -0 0 1
    outer loop
      vertex 0.95 -0.32 0.9
      vertex 5.36 -1.45 0.9
      vertex 1.59 -0.32 0.9
    endloop
  endfacet
  facet normal 0 0 1
    outer loop
      vertex -0.949999 -0.32 0.9
      vertex 0.95 -0.32 0.9
      vertex -0.949999 0.319999 0.9
    endloop
  endfacet
  facet normal -0 0 1
    outer loop
      vertex -0.949999 -0.32 0.9
      vertex 5.36 -1.45 0.9
      vertex 0.95 -0.32 0.9
    endloop
  endfacet
  facet normal 0 0 1
    outer loop
      vertex -5.36 -1.45 0.9
      vertex -0.949999 -0.32 0.9
      vertex -1.59 -0.32 0.9
    endloop
  endfacet
  facet normal 0 0 1
    outer loop
      vertex -3.49 -0.32 0.9
      vertex -1.59 -0.32 0.9
      vertex -3.49 0.319999 0.9
    endloop
  endfacet
  facet normal 0 0 1
    outer loop
      vertex -5.36 -1.45 0.9
      vertex -1.59 -0.32 0.9
      vertex -3.49 -0.32 0.9
    endloop
  endfacet
  facet normal 0 0 1
    outer loop
      vertex -5.36 -1.45 0.9
      vertex -3.49 -0.32 0.9
      vertex -4.13 -0.32 0.9
    endloop
  endfacet
  facet normal 0 0 1
    outer loop
      vertex -0.949999 -0.32 0.9
      vertex -5.36 -1.45 0.9
      vertex 5.36 -1.45 0.9
    endloop
  endfacet
  facet normal 0 0 1
    outer loop
      vertex -4.13 0.319999 0.9
      vertex -5.36 -1.45 0.9
      vertex -4.13 -0.32 0.9
    endloop
  endfacet
  facet normal 1 -0 0
    outer loop
      vertex -5.36 -1.45 7
      vertex -5.36 2.5 0.9
      vertex -5.36 2.5 7
    endloop
  endfacet
  facet normal 1 0 0
    outer loop
      vertex -5.36 2.5 0.9
      vertex -5.36 -1.45 7
      vertex -5.36 -1.45 0.9
    endloop
  endfacet
  facet normal 0 -1 0
    outer loop
      vertex -5.36 2.5 0.9
      vertex 5.36 2.5 7
      vertex -5.36 2.5 7
    endloop
  endfacet
  facet normal 0 -1 -0
    outer loop
      vertex 5.36 2.5 7
      vertex -5.36 2.5 0.9
      vertex 5.36 2.5 0.9
    endloop
  endfacet
  facet normal 0 1 -0
    outer loop
      vertex 5.36 -1.45 0.9
      vertex -5.36 -1.45 7
      vertex 5.36 -1.45 7
    endloop
  endfacet
  facet normal 0 1 0
    outer loop
      vertex -5.36 -1.45 7
      vertex 5.36 -1.45 0.9
      vertex -5.36 -1.45 0.9
    endloop
  endfacet
  facet normal 1 -0 0
    outer loop
      vertex -3.49 -0.32 4.2
      vertex -3.49 0.319999 0.9
      vertex -3.49 0.319999 4.2
    endloop
  endfacet
  facet normal 1 0 0
    outer loop
      vertex -3.49 0.319999 0.9
      vertex -3.49 -0.32 4.2
      vertex -3.49 -0.32 0.9
    endloop
  endfacet
  facet normal 1 -0 0
    outer loop
      vertex -3.49 -0.32 0
      vertex -3.49 0.319999 -3.4
      vertex -3.49 0.319999 0
    endloop
  endfacet
  facet normal 1 0 0
    outer loop
      vertex -3.49 0.319999 -3.4
      vertex -3.49 -0.32 0
      vertex -3.49 -0.32 -3.4
    endloop
  endfacet
  facet normal -0 0 1
    outer loop
      vertex -4.13 0.319999 4.2
      vertex -3.49 -0.32 4.2
      vertex -3.49 0.319999 4.2
    endloop
  endfacet
  facet normal 0 0 1
    outer loop
      vertex -3.49 -0.32 4.2
      vertex -4.13 0.319999 4.2
      vertex -4.13 -0.32 4.2
    endloop
  endfacet
  facet normal 0 0 -1
    outer loop
      vertex -4.13 -0.32 -3.4
      vertex -3.49 0.319999 -3.4
      vertex -3.49 -0.32 -3.4
    endloop
  endfacet
  facet normal -0 0 -1
    outer loop
      vertex -3.49 0.319999 -3.4
      vertex -4.13 -0.32 -3.4
      vertex -4.13 0.319999 -3.4
    endloop
  endfacet
  facet normal -1 0 0
    outer loop
      vertex -4.13 -0.32 0.9
      vertex -4.13 0.319999 4.2
      vertex -4.13 0.319999 0.9
    endloop
  endfacet
  facet normal -1 -0 0
    outer loop
      vertex -4.13 0.319999 4.2
      vertex -4.13 -0.32 0.9
      vertex -4.13 -0.32 4.2
    endloop
  endfacet
  facet normal -1 0 0
    outer loop
      vertex -4.13 -0.32 -3.4
      vertex -4.13 0.319999 0
      vertex -4.13 0.319999 -3.4
    endloop
  endfacet
  facet normal -1 -0 0
    outer loop
      vertex -4.13 0.319999 0
      vertex -4.13 -0.32 -3.4
      vertex -4.13 -0.32 0
    endloop
  endfacet
  facet normal 0 1 -0
    outer loop
      vertex -3.49 0.319999 0.9
      vertex -4.13 0.319999 4.2
      vertex -3.49 0.319999 4.2
    endloop
  endfacet
  facet normal 0 1 0
    outer loop
      vertex -4.13 0.319999 4.2
      vertex -3.49 0.319999 0.9
      vertex -4.13 0.319999 0.9
    endloop
  endfacet
  facet normal 0 1 -0
    outer loop
      vertex -3.49 0.319999 -3.4
      vertex -4.13 0.319999 0
      vertex -3.49 0.319999 0
    endloop
  endfacet
  facet normal 0 1 0
    outer loop
      vertex -4.13 0.319999 0
      vertex -3.49 0.319999 -3.4
      vertex -4.13 0.319999 -3.4
    endloop
  endfacet
  facet normal 0 -1 0
    outer loop
      vertex -4.13 -0.32 0.9
      vertex -3.49 -0.32 4.2
      vertex -4.13 -0.32 4.2
    endloop
  endfacet
  facet normal 0 -1 -0
    outer loop
      vertex -3.49 -0.32 4.2
      vertex -4.13 -0.32 0.9
      vertex -3.49 -0.32 0.9
    endloop
  endfacet
  facet normal 0 -1 0
    outer loop
      vertex -4.13 -0.32 -3.4
      vertex -3.49 -0.32 0
      vertex -4.13 -0.32 0
    endloop
  endfacet
  facet normal 0 -1 -0
    outer loop
      vertex -3.49 -0.32 0
      vertex -4.13 -0.32 -3.4
      vertex -3.49 -0.32 -3.4
    endloop
  endfacet
  facet normal 1 -0 0
    outer loop
      vertex -0.949999 -0.32 4.2
      vertex -0.949999 0.319999 0.9
      vertex -0.949999 0.319999 4.2
    endloop
  endfacet
  facet normal 1 0 0
    outer loop
      vertex -0.949999 0.319999 0.9
      vertex -0.949999 -0.32 4.2
      vertex -0.949999 -0.32 0.9
    endloop
  endfacet
  facet normal 1 -0 0
    outer loop
      vertex -0.949999 -0.32 0
      vertex -0.949999 0.319999 -3.4
      vertex -0.949999 0.319999 0
    endloop
  endfacet
  facet normal 1 0 0
    outer loop
      vertex -0.949999 0.319999 -3.4
      vertex -0.949999 -0.32 0
      vertex -0.949999 -0.32 -3.4
    endloop
  endfacet
  facet normal -0 0 1
    outer loop
      vertex -1.59 0.319999 4.2
      vertex -0.949999 -0.32 4.2
      vertex -0.949999 0.319999 4.2
    endloop
  endfacet
  facet normal 0 0 1
    outer loop
      vertex -0.949999 -0.32 4.2
      vertex -1.59 0.319999 4.2
      vertex -1.59 -0.32 4.2
    endloop
  endfacet
  facet normal 0 0 -1
    outer loop
      vertex -1.59 -0.32 -3.4
      vertex -0.949999 0.319999 -3.4
      vertex -0.949999 -0.32 -3.4
    endloop
  endfacet
  facet normal -0 0 -1
    outer loop
      vertex -0.949999 0.319999 -3.4
      vertex -1.59 -0.32 -3.4
      vertex -1.59 0.319999 -3.4
    endloop
  endfacet
  facet normal -1 0 0
    outer loop
      vertex -1.59 -0.32 0.9
      vertex -1.59 0.319999 4.2
      vertex -1.59 0.319999 0.9
    endloop
  endfacet
  facet normal -1 -0 0
    outer loop
      vertex -1.59 0.319999 4.2
      vertex -1.59 -0.32 0.9
      vertex -1.59 -0.32 4.2
    endloop
  endfacet
  facet normal -1 0 0
    outer loop
      vertex -1.59 -0.32 -3.4
      vertex -1.59 0.319999 0
      vertex -1.59 0.319999 -3.4
    endloop
  endfacet
  facet normal -1 -0 0
    outer loop
      vertex -1.59 0.319999 0
      vertex -1.59 -0.32 -3.4
      vertex -1.59 -0.32 0
    endloop
  endfacet
  facet normal 0 1 -0
    outer loop
      vertex -0.949999 0.319999 0.9
      vertex -1.59 0.319999 4.2
      vertex -0.949999 0.319999 4.2
    endloop
  endfacet
  facet normal 0 1 0
    outer loop
      vertex -1.59 0.319999 4.2
      vertex -0.949999 0.319999 0.9
      vertex -1.59 0.319999 0.9
    endloop
  endfacet
  facet normal 0 1 -0
    outer loop
      vertex -0.949999 0.319999 -3.4
      vertex -1.59 0.319999 0
      vertex -0.949999 0.319999 0
    endloop
  endfacet
  facet normal 0 1 0
    outer loop
      vertex -1.59 0.319999 0
      vertex -0.949999 0.319999 -3.4
      vertex -1.59 0.319999 -3.4
    endloop
  endfacet
  facet normal 0 -1 0
    outer loop
      vertex -1.59 -0.32 0.9
      vertex -0.949999 -0.32 4.2
      vertex -1.59 -0.32 4.2
    endloop
  endfacet
  facet normal 0 -1 -0
    outer loop
      vertex -0.949999 -0.32 4.2
      vertex -1.59 -0.32 0.9
      vertex -0.949999 -0.32 0.9
    endloop
  endfacet
  facet normal 0 -1 0
    outer loop
      vertex -1.59 -0.32 -3.4
      vertex -0.949999 -0.32 0
      vertex -1.59 -0.32 0
    endloop
  endfacet
  facet normal 0 -1 -0
    outer loop
      vertex -0.949999 -0.32 0
      vertex -1.59 -0.32 -3.4
      vertex -0.949999 -0.32 -3.4
    endloop
  endfacet
  facet normal 1 -0 0
    outer loop
      vertex 1.59 -0.32 4.2
      vertex 1.59 0.319999 0.9
      vertex 1.59 0.319999 4.2
    endloop
  endfacet
  facet normal 1 0 0
    outer loop
      vertex 1.59 0.319999 0.9
      vertex 1.59 -0.32 4.2
      vertex 1.59 -0.32 0.9
    endloop
  endfacet
  facet normal 1 -0 0
    outer loop
      vertex 1.59 -0.32 0
      vertex 1.59 0.319999 -3.4
      vertex 1.59 0.319999 0
    endloop
  endfacet
  facet normal 1 0 0
    outer loop
      vertex 1.59 0.319999 -3.4
      vertex 1.59 -0.32 0
      vertex 1.59 -0.32 -3.4
    endloop
  endfacet
  facet normal -0 0 1
    outer loop
      vertex 0.95 0.319999 4.2
      vertex 1.59 -0.32 4.2
      vertex 1.59 0.319999 4.2
    endloop
  endfacet
  facet normal 0 0 1
    outer loop
      vertex 1.59 -0.32 4.2
      vertex 0.95 0.319999 4.2
      vertex 0.95 -0.32 4.2
    endloop
  endfacet
  facet normal 0 0 -1
    outer loop
      vertex 0.95 -0.32 -3.4
      vertex 1.59 0.319999 -3.4
      vertex 1.59 -0.32 -3.4
    endloop
  endfacet
  facet normal -0 0 -1
    outer loop
      vertex 1.59 0.319999 -3.4
      vertex 0.95 -0.32 -3.4
      vertex 0.95 0.319999 -3.4
    endloop
  endfacet
  facet normal -1 0 0
    outer loop
      vertex 0.95 -0.32 0.9
      vertex 0.95 0.319999 4.2
      vertex 0.95 0.319999 0.9
    endloop
  endfacet
  facet normal -1 -0 0
    outer loop
      vertex 0.95 0.319999 4.2
      vertex 0.95 -0.32 0.9
      vertex 0.95 -0.32 4.2
    endloop
  endfacet
  facet normal -1 0 0
    outer loop
      vertex 0.95 -0.32 -3.4
      vertex 0.95 0.319999 0
      vertex 0.95 0.319999 -3.4
    endloop
  endfacet
  facet normal -1 -0 0
    outer loop
      vertex 0.95 0.319999 0
      vertex 0.95 -0.32 -3.4
      vertex 0.95 -0.32 0
    endloop
  endfacet
  facet normal 0 1 -0
    outer loop
      vertex 1.59 0.319999 0.9
      vertex 0.95 0.319999 4.2
      vertex 1.59 0.319999 4.2
    endloop
  endfacet
  facet normal 0 1 0
    outer loop
      vertex 0.95 0.319999 4.2
      vertex 1.59 0.319999 0.9
      vertex 0.95 0.319999 0.9
    endloop
  endfacet
  facet normal 0 1 -0
    outer loop
      vertex 1.59 0.319999 -3.4
      vertex 0.95 0.319999 0
      vertex 1.59 0.319999 0
    endloop
  endfacet
  facet normal 0 1 0
    outer loop
      vertex 0.95 0.319999 0
      vertex 1.59 0.319999 -3.4
      vertex 0.95 0.319999 -3.4
    endloop
  endfacet
  facet normal 0 -1 0
    outer loop
      vertex 0.95 -0.32 0.9
      vertex 1.59 -0.32 4.2
      vertex 0.95 -0.32 4.2
    endloop
  endfacet
  facet normal 0 -1 -0
    outer loop
      vertex 1.59 -0.32 4.2
      vertex 0.95 -0.32 0.9
      vertex 1.59 -0.32 0.9
    endloop
  endfacet
  facet normal 0 -1 0
    outer loop
      vertex 0.95 -0.32 -3.4
      vertex 1.59 -0.32 0
      vertex 0.95 -0.32 0
    endloop
  endfacet
  facet normal 0 -1 -0
    outer loop
      vertex 1.59 -0.32 0
      vertex 0.95 -0.32 -3.4
      vertex 1.59 -0.32 -3.4
    endloop
  endfacet
  facet normal 1 -0 0
    outer loop
      vertex 4.13 -0.32 4.2
      vertex 4.13 0.319999 0.9
      vertex 4.13 0.319999 4.2
    endloop
  endfacet
  facet normal 1 0 0
    outer loop
      vertex 4.13 0.319999 0.9
      vertex 4.13 -0.32 4.2
      vertex 4.13 -0.32 0.9
    endloop
  endfacet
  facet normal 1 -0 0
    outer loop
      vertex 4.13 -0.32 0
      vertex 4.13 0.319999 -3.4
      vertex 4.13 0.319999 0
    endloop
  endfacet
  facet normal 1 0 0
    outer loop
      vertex 4.13 0.319999 -3.4
      vertex 4.13 -0.32 0
      vertex 4.13 -0.32 -3.4
    endloop
  endfacet
  facet normal -0 0 1
    outer loop
      vertex 3.49 0.319999 4.2
      vertex 4.13 -0.32 4.2
      vertex 4.13 0.319999 4.2
    endloop
  endfacet
  facet normal 0 0 1
    outer loop
      vertex 4.13 -0.32 4.2
      vertex 3.49 0.319999 4.2
      vertex 3.49 -0.32 4.2
    endloop
  endfacet
  facet normal 0 0 -1
    outer loop
      vertex 3.49 -0.32 -3.4
      vertex 4.13 0.319999 -3.4
      vertex 4.13 -0.32 -3.4
    endloop
  endfacet
  facet normal -0 0 -1
    outer loop
      vertex 4.13 0.319999 -3.4
      vertex 3.49 -0.32 -3.4
      vertex 3.49 0.319999 -3.4
    endloop
  endfacet
  facet normal -1 0 0
    outer loop
      vertex 3.49 -0.32 0.9
      vertex 3.49 0.319999 4.2
      vertex 3.49 0.319999 0.9
    endloop
  endfacet
  facet normal -1 -0 0
    outer loop
      vertex 3.49 0.319999 4.2
      vertex 3.49 -0.32 0.9
      vertex 3.49 -0.32 4.2
    endloop
  endfacet
  facet normal -1 0 0
    outer loop
      vertex 3.49 -0.32 -3.4
      vertex 3.49 0.319999 0
      vertex 3.49 0.319999 -3.4
    endloop
  endfacet
  facet normal -1 -0 0
    outer loop
      vertex 3.49 0.319999 0
      vertex 3.49 -0.32 -3.4
      vertex 3.49 -0.32 0
    endloop
  endfacet
  facet normal 0 1 -0
    outer loop
      vertex 4.13 0.319999 0.9
      vertex 3.49 0.319999 4.2
      vertex 4.13 0.319999 4.2
    endloop
  endfacet
  facet normal 0 1 0
    outer loop
      vertex 3.49 0.319999 4.2
      vertex 4.13 0.319999 0.9
      vertex 3.49 0.319999 0.9
    endloop
  endfacet
  facet normal 0 1 -0
    outer loop
      vertex 4.13 0.319999 -3.4
      vertex 3.49 0.319999 0
      vertex 4.13 0.319999 0
    endloop
  endfacet
  facet normal 0 1 0
    outer loop
      vertex 3.49 0.319999 0
      vertex 4.13 0.319999 -3.4
      vertex 3.49 0.319999 -3.4
    endloop
  endfacet
  facet normal 0 -1 0
    outer loop
      vertex 3.49 -0.32 0.9
      vertex 4.13 -0.32 4.2
      vertex 3.49 -0.32 4.2
    endloop
  endfacet
  facet normal 0 -1 -0
    outer loop
      vertex 4.13 -0.32 4.2
      vertex 3.49 -0.32 0.9
      vertex 4.13 -0.32 0.9
    endloop
  endfacet
  facet normal 0 -1 0
    outer loop
      vertex 3.49 -0.32 -3.4
      vertex 4.13 -0.32 0
      vertex 3.49 -0.32 0
    endloop
  endfacet
  facet normal 0 -1 -0
    outer loop
      vertex 4.13 -0.32 0
      vertex 3.49 -0.32 -3.4
      vertex 4.13 -0.32 -3.4
    endloop
  endfacet
endsolid OpenSCAD_Model
